<svg xmlns="http://www.w3.org/2000/svg" xmlns:xlink="http://www.w3.org/1999/xlink" width="200" zoomAndPan="magnify" viewBox="0 0 150 149.999998" height="200" preserveAspectRatio="xMidYMid meet" version="1.0"><defs><g/><clipPath id="a6bda9631d"><path d="M 62 66.992188 L 75 66.992188 L 75 119 L 62 119 Z M 62 66.992188 " clip-rule="nonzero"/></clipPath><clipPath id="e35b6b30dd"><path d="M 75 66.992188 L 88 66.992188 L 88 120 L 75 120 Z M 75 66.992188 " clip-rule="nonzero"/></clipPath><clipPath id="10990a8e0a"><path d="M 43.519531 105 L 106.519531 105 L 106.519531 123.992188 L 43.519531 123.992188 Z M 43.519531 105 " clip-rule="nonzero"/></clipPath><clipPath id="3b59a91083"><path d="M 43.519531 23.699219 L 103.511719 23.699219 L 103.511719 74.699219 L 43.519531 74.699219 Z M 43.519531 23.699219 " clip-rule="nonzero"/></clipPath></defs><path fill="#40c0d8" d="M 61.816406 77.148438 C 57.863281 78.421875 53.910156 79.699219 49.957031 80.976562 C 49.957031 89.855469 49.957031 98.734375 49.957031 107.609375 L 61.816406 112.960938 L 61.816406 77.148438 " fill-opacity="1" fill-rule="nonzero"/><g clip-path="url(#a6bda9631d)"><path fill="#6ecfe2" d="M 74.632812 66.988281 C 70.679688 68.574219 66.726562 70.160156 62.773438 71.742188 C 62.773438 85.625 62.773438 99.507812 62.773438 113.390625 L 74.632812 118.742188 L 74.632812 66.988281 " fill-opacity="1" fill-rule="nonzero"/></g><path fill="#d4f1f5" d="M 100.074219 80.976562 C 96.121094 79.699219 92.167969 78.421875 88.214844 77.148438 L 88.214844 113.585938 L 100.074219 108.515625 C 100.074219 99.335938 100.074219 90.15625 100.074219 80.976562 " fill-opacity="1" fill-rule="nonzero"/><g clip-path="url(#e35b6b30dd)"><path fill="#99dde7" d="M 87.257812 71.742188 C 83.304688 70.160156 79.351562 68.574219 75.398438 66.988281 L 75.398438 119.066406 L 87.257812 113.996094 C 87.257812 99.914062 87.257812 85.828125 87.257812 71.742188 " fill-opacity="1" fill-rule="nonzero"/></g><g clip-path="url(#10990a8e0a)"><path fill="#6ecfe2" d="M 75.375 120.328125 L 43.523438 105.960938 C 43.523438 107.179688 43.523438 108.394531 43.523438 109.613281 L 75.394531 123.992188 L 106.472656 110.707031 C 106.484375 109.476562 106.496094 108.246094 106.511719 107.019531 L 75.375 120.328125 " fill-opacity="1" fill-rule="nonzero"/></g><path fill="#ffffff" d="M 100.050781 49.382812 C 100.050781 49.382812 100.050781 49.386719 100.054688 49.390625 L 100.074219 49.371094 C 100.066406 49.371094 100.054688 49.375 100.046875 49.375 C 100.050781 49.378906 100.050781 49.382812 100.050781 49.382812 " fill-opacity="1" fill-rule="nonzero"/><g clip-path="url(#3b59a91083)"><path fill="#ffffff" d="M 103.371094 23.992188 C 103.210938 23.78125 102.914062 23.695312 102.546875 23.699219 C 101.363281 23.71875 99.410156 24.648438 98.558594 25.324219 C 98.542969 25.339844 95.058594 28.527344 94.960938 28.613281 L 79.9375 24.1875 C 79.605469 24.089844 79.101562 24.171875 78.835938 24.398438 L 77.703125 25.359375 C 77.441406 25.585938 77.496094 25.917969 77.804688 26.074219 L 90.113281 32.378906 L 90.597656 32.628906 C 90.460938 32.753906 82.90625 39.675781 81.421875 41.039062 C 81.308594 41.144531 81.144531 41.1875 80.988281 41.152344 L 76.703125 40.152344 C 76.355469 40.070312 75.867188 40.179688 75.613281 40.390625 C 75.363281 40.605469 75.417969 40.910156 75.738281 41.066406 C 75.738281 41.066406 79.035156 42.671875 79.625 42.960938 L 43.578125 74.390625 C 43.507812 74.453125 43.496094 74.5625 43.558594 74.636719 C 43.625 74.714844 43.738281 74.726562 43.8125 74.664062 L 80.753906 44.285156 C 81.191406 45.578125 82.042969 48.378906 82.042969 48.378906 C 82.148438 48.71875 82.4375 48.820312 82.6875 48.605469 C 82.941406 48.390625 83.125 47.925781 83.097656 47.570312 L 82.757812 43.175781 C 82.746094 43.019531 82.8125 42.867188 82.9375 42.765625 L 92.6875 35.066406 L 97.234375 48.601562 C 97.296875 48.785156 97.398438 48.917969 97.527344 48.929688 C 97.578125 48.933594 97.628906 48.914062 97.667969 48.882812 C 97.667969 48.882812 98.675781 48.09375 98.984375 47.8125 C 99.28125 47.539062 99.433594 47.132812 99.386719 46.789062 L 97.324219 31.367188 L 100.980469 28.546875 L 101.011719 28.527344 C 101.84375 27.863281 103.121094 26.164062 103.441406 24.972656 C 103.550781 24.566406 103.546875 24.21875 103.371094 23.992188 " fill-opacity="1" fill-rule="nonzero"/></g><g fill="#00c2cb" fill-opacity="1"><g transform="translate(19.138552, 143.034965)"><g><path d="M 6.320312 -8.242188 C 7.46875 -8.242188 6.894531 -9.378906 6.894531 -9.957031 C 6.894531 -10.25 6.601562 -10.53125 6.601562 -10.53125 L 3.734375 -10.53125 C 2.582031 -10.25 1.445312 -10.25 0.292969 -9.957031 C 0.292969 -9.957031 0.292969 -9.378906 0.292969 -9.378906 L 1.445312 -9.378906 C 1.445312 -8.539062 1.445312 -7.667969 1.445312 -6.8125 L 1.445312 -5.671875 C 1.445312 -4.523438 1.445312 -3.664062 1.445312 -2.792969 L 1.445312 -2.21875 C 1.445312 -0.476562 1.742188 0.925781 1.445312 2.640625 C 1.164062 2.640625 0.589844 2.640625 0.292969 2.640625 L 0.292969 3.214844 C 2.007812 3.511719 3.453125 3.511719 4.871094 3.511719 L 6.320312 3.511719 C 6.601562 3.214844 6.894531 2.933594 6.894531 2.640625 C 6.894531 2.0625 6.894531 1.222656 6.320312 1.222656 C 5.742188 1.503906 6.320312 2.359375 5.742188 2.640625 C 4.871094 2.640625 4.3125 2.640625 3.453125 2.359375 C 3.453125 1.796875 3.371094 0.6875 3.371094 -0.183594 C 3.371094 -1.023438 3.160156 -2.21875 3.453125 -3.089844 C 3.734375 -3.089844 4.605469 -3.089844 4.871094 -3.089844 L 4.871094 -2.792969 C 4.871094 -2.511719 5.449219 -2.21875 5.449219 -2.21875 C 6.023438 -2.21875 5.449219 -3.960938 5.742188 -4.523438 C 5.449219 -4.800781 5.449219 -4.800781 5.167969 -4.800781 C 4.871094 -4.800781 4.871094 -4.226562 4.871094 -3.960938 C 4.3125 -3.960938 3.453125 -3.960938 3.160156 -4.226562 C 3.453125 -4.800781 3.160156 -5.378906 3.160156 -6.25 C 3.160156 -6.8125 3.203125 -7.230469 3.203125 -8.03125 C 3.203125 -8.679688 3.160156 -9.113281 3.453125 -9.378906 C 4.03125 -9.675781 4.871094 -9.675781 5.449219 -9.675781 C 5.742188 -9.535156 5.742188 -9.535156 6.023438 -9.378906 C 6.320312 -9.113281 6.023438 -8.539062 6.320312 -8.242188 Z M 6.320312 -8.242188 "/></g></g></g><g fill="#00c2cb" fill-opacity="1"><g transform="translate(26.437452, 143.034965)"><g><path d="M 6.390625 -2.976562 C 6.09375 -3.554688 5.980469 -3.679688 5.757812 -4.351562 C 5.351562 -5.589844 4.941406 -7.035156 4.367188 -8.199219 L 4.367188 -8.496094 C 4.074219 -9.070312 3.777344 -9.632812 3.496094 -10.222656 C 2.613281 -10.503906 1.179688 -10.796875 0.308594 -10.503906 C 0.308594 -9.929688 0.308594 -9.929688 0.605469 -9.632812 C 0.882812 -9.632812 0.996094 -9.535156 1.25 -9.535156 C 1.515625 -9.535156 1.472656 -9.632812 1.769531 -9.632812 L 1.769531 -7.609375 C 1.769531 -6.742188 1.769531 -5.601562 1.769531 -4.71875 L 1.769531 -4.144531 C 1.769531 -2.976562 1.769531 -1.542969 1.769531 -0.378906 L 1.769531 2.511719 C 1.179688 2.21875 1.179688 2.511719 0.882812 2.808594 C 1.179688 3.101562 1.179688 3.382812 1.472656 3.382812 C 2.050781 3.382812 4.074219 3.679688 4.074219 2.808594 C 4.074219 2.511719 3.777344 2.511719 3.496094 2.511719 C 3.496094 1.65625 3.496094 0.785156 3.496094 -0.0859375 L 3.496094 -1.542969 C 3.496094 -2.402344 3.777344 -3.484375 3.777344 -4.144531 L 3.777344 -6.164062 C 4.074219 -5.871094 4.113281 -5.519531 4.226562 -5.238281 C 4.507812 -4.507812 4.648438 -4.042969 4.816406 -3.496094 C 5.082031 -2.625 5.28125 -1.855469 5.53125 -0.953125 C 5.671875 -0.449219 5.828125 -0.0859375 5.828125 0.492188 C 6.09375 0.492188 6.390625 0.785156 6.671875 0.785156 C 6.964844 0.785156 6.949219 -0.421875 7.078125 -0.984375 C 7.273438 -1.867188 7.261719 -1.855469 7.582031 -3.554688 C 7.640625 -3.847656 7.835938 -4.4375 7.835938 -4.4375 C 8.128906 -5.601562 8.355469 -6.851562 8.664062 -7.609375 C 8.777344 -7.878906 8.707031 -8.199219 8.707031 -8.199219 C 9 -7.90625 8.890625 -7.851562 8.890625 -7.582031 C 9.042969 -7.203125 9 -7.035156 9 -7.035156 L 9 -5.871094 C 9 -5.308594 8.859375 -4.464844 8.859375 -4.042969 C 8.832031 -1.628906 8.707031 0.492188 9 2.511719 C 8.707031 2.808594 8.128906 2.808594 8.128906 3.101562 C 8.128906 3.382812 8.410156 3.242188 8.410156 3.539062 C 9.042969 3.523438 9.550781 3.355469 9.378906 3.453125 L 9.886719 3.554688 C 10.179688 3.554688 10.238281 3.453125 10.519531 3.453125 C 10.8125 3.453125 10.839844 3.539062 11.136719 3.539062 C 11.710938 3.242188 11.023438 2.511719 10.152344 2.511719 C 10.152344 1.65625 10.292969 0.816406 10.152344 -0.378906 C 10.082031 -1.023438 10.152344 -1.542969 10.152344 -2.402344 L 10.152344 -4.71875 C 10.152344 -5.308594 10.152344 -5.492188 10.152344 -6.164062 L 10.152344 -7.332031 C 10.152344 -8.199219 9.859375 -8.777344 10.152344 -9.632812 C 10.730469 -9.367188 11.023438 -9.632812 11.320312 -9.929688 C 11.023438 -10.222656 11.023438 -10.503906 10.730469 -10.503906 L 9 -10.503906 C 8.425781 -10.503906 7.835938 -9.929688 7.835938 -9.367188 C 7.835938 -8.777344 7.625 -8.257812 7.484375 -7.679688 C 7.246094 -6.671875 7.089844 -6.292969 6.964844 -5.601562 C 6.8125 -4.730469 6.671875 -3.847656 6.390625 -2.976562 Z M 6.390625 -2.976562 "/></g></g></g><g fill="#00c2cb" fill-opacity="1"><g transform="translate(38.129733, 143.034965)"><g><path d="M 3.511719 2.429688 C 3.203125 1.265625 3.511719 0.0703125 3.511719 -1.109375 C 3.511719 -1.390625 3.496094 -2.023438 3.511719 -2.273438 C 3.523438 -2.570312 3.804688 -2.570312 3.804688 -2.570312 C 4.691406 -2.570312 5.265625 -2.570312 5.855469 -2.878906 C 6.460938 -3.453125 7.34375 -4.042969 7.625 -4.929688 C 7.921875 -5.53125 7.921875 -6.402344 7.921875 -7.289062 C 7.625 -8.761719 6.726562 -10.347656 5.574219 -10.53125 C 5.140625 -10.601562 5.265625 -10.53125 4.972656 -10.53125 C 3.511719 -10.53125 2.203125 -10.601562 0.773438 -10.347656 C 0.464844 -10.070312 0 -9.789062 0.574219 -9.480469 C 0.882812 -9.199219 1.054688 -9.378906 1.417969 -9.226562 C 1.699219 -9.113281 1.613281 -8.71875 1.613281 -8.300781 C 1.628906 -7.089844 1.558594 -6.710938 1.613281 -6.066406 C 1.683594 -5.125 1.613281 -4.382812 1.613281 -3.804688 C 1.613281 -2.316406 1.53125 -0.914062 1.542969 1.011719 C 1.542969 1.445312 1.742188 2.148438 1.433594 2.429688 C 0.855469 2.429688 0.855469 2.429688 0.546875 2.722656 C 0.546875 3.035156 0.855469 3.3125 0.855469 3.3125 C 2.035156 3.609375 2.921875 3.3125 4.394531 3.3125 C 4.972656 2.722656 4.394531 2.429688 3.511719 2.429688 Z M 3.511719 -5.222656 C 3.511719 -6.683594 3.203125 -8.171875 3.511719 -9.648438 L 4.394531 -9.648438 C 4.972656 -9.648438 5.265625 -9.339844 5.574219 -9.339844 C 5.855469 -8.761719 6.066406 -7.820312 6.066406 -6.9375 C 6.066406 -5.925781 6.039062 -5.96875 5.855469 -5.222656 C 5.703125 -4.59375 5.195312 -3.933594 4.648438 -3.582031 C 4.394531 -3.425781 3.804688 -3.453125 3.511719 -3.761719 Z M 3.511719 -5.222656 "/></g></g></g><g fill="#00c2cb" fill-opacity="1"><g transform="translate(46.495399, 143.034965)"><g><path d="M 6.191406 -4.296875 C 6.191406 -4.605469 5.882812 -4.605469 5.882812 -4.902344 L 6.191406 -5.210938 C 6.472656 -5.492188 6.910156 -6.011719 7.078125 -6.417969 C 7.414062 -7.230469 7.21875 -8.242188 7.078125 -8.820312 C 6.65625 -10.558594 4.074219 -10.628906 2.246094 -10.320312 C 1.964844 -10.320312 1.867188 -10.152344 1.574219 -10.152344 C 0.660156 -10.152344 0.265625 -10.140625 0.265625 -9.253906 C 0.265625 -8.945312 0.773438 -8.820312 1.363281 -8.820312 C 1.363281 -7.300781 1.542969 -6.363281 1.460938 -5.082031 C 1.433594 -4.664062 1.363281 -4.605469 1.363281 -4.296875 C 1.671875 -3.707031 1.363281 -3.089844 1.363281 -2.5 L 1.363281 2.625 C 1.054688 2.625 0.773438 2.625 0.464844 2.90625 C 0.773438 3.523438 1.054688 3.523438 1.671875 3.523438 C 2.246094 3.214844 3.523438 3.441406 4.113281 3.441406 C 4.410156 3.441406 4.367188 3.214844 4.367188 2.90625 C 4.367188 2.625 3.761719 2.625 3.761719 2.332031 C 3.484375 1.714844 3.484375 1.125 3.484375 0.503906 C 3.484375 -0.6875 3.171875 -2.5 3.484375 -4.015625 C 3.484375 -4.296875 3.761719 -4.296875 4.074219 -4.296875 C 4.367188 -4.015625 4.675781 -4.015625 4.675781 -3.707031 C 4.984375 -3.398438 5.042969 -3.230469 5.265625 -2.90625 C 5.96875 -1.882812 5.671875 -0.605469 5.855469 0.535156 C 6.164062 2.359375 5.308594 2.824219 5.925781 3.414062 C 6.78125 3.511719 8.019531 3.722656 8.019531 2.824219 C 8.019531 2.527344 7.738281 2.527344 7.429688 2.527344 C 7.121094 0.40625 7.386719 -2.78125 6.191406 -4.296875 Z M 3.203125 -9.394531 C 3.484375 -9.394531 4.367188 -9.421875 4.675781 -9.421875 C 4.984375 -9.128906 5.265625 -8.929688 5.265625 -8.511719 C 5.265625 -7.921875 5.378906 -7.976562 5.265625 -7.300781 C 5.195312 -6.894531 4.984375 -6.417969 4.984375 -6.109375 C 4.675781 -5.800781 3.328125 -5.28125 3.3125 -5.6875 C 3.242188 -7.148438 3.203125 -8.1875 3.203125 -9.394531 Z M 3.203125 -9.394531 "/></g></g></g><g fill="#00c2cb" fill-opacity="1"><g transform="translate(54.832989, 143.034965)"><g><path d="M 6.320312 -8.242188 C 7.46875 -8.242188 6.894531 -9.378906 6.894531 -9.957031 C 6.894531 -10.25 6.601562 -10.53125 6.601562 -10.53125 L 3.734375 -10.53125 C 2.582031 -10.25 1.445312 -10.25 0.292969 -9.957031 C 0.292969 -9.957031 0.292969 -9.378906 0.292969 -9.378906 L 1.445312 -9.378906 C 1.445312 -8.539062 1.445312 -7.667969 1.445312 -6.8125 L 1.445312 -5.671875 C 1.445312 -4.523438 1.445312 -3.664062 1.445312 -2.792969 L 1.445312 -2.21875 C 1.445312 -0.476562 1.742188 0.925781 1.445312 2.640625 C 1.164062 2.640625 0.589844 2.640625 0.292969 2.640625 L 0.292969 3.214844 C 2.007812 3.511719 3.453125 3.511719 4.871094 3.511719 L 6.320312 3.511719 C 6.601562 3.214844 6.894531 2.933594 6.894531 2.640625 C 6.894531 2.0625 6.894531 1.222656 6.320312 1.222656 C 5.742188 1.503906 6.320312 2.359375 5.742188 2.640625 C 4.871094 2.640625 4.3125 2.640625 3.453125 2.359375 C 3.453125 1.796875 3.371094 0.6875 3.371094 -0.183594 C 3.371094 -1.023438 3.160156 -2.21875 3.453125 -3.089844 C 3.734375 -3.089844 4.605469 -3.089844 4.871094 -3.089844 L 4.871094 -2.792969 C 4.871094 -2.511719 5.449219 -2.21875 5.449219 -2.21875 C 6.023438 -2.21875 5.449219 -3.960938 5.742188 -4.523438 C 5.449219 -4.800781 5.449219 -4.800781 5.167969 -4.800781 C 4.871094 -4.800781 4.871094 -4.226562 4.871094 -3.960938 C 4.3125 -3.960938 3.453125 -3.960938 3.160156 -4.226562 C 3.453125 -4.800781 3.160156 -5.378906 3.160156 -6.25 C 3.160156 -6.8125 3.203125 -7.230469 3.203125 -8.03125 C 3.203125 -8.679688 3.160156 -9.113281 3.453125 -9.378906 C 4.03125 -9.675781 4.871094 -9.675781 5.449219 -9.675781 C 5.742188 -9.535156 5.742188 -9.535156 6.023438 -9.378906 C 6.320312 -9.113281 6.023438 -8.539062 6.320312 -8.242188 Z M 6.320312 -8.242188 "/></g></g></g><g fill="#00c2cb" fill-opacity="1"><g transform="translate(62.131888, 143.034965)"><g><path d="M 4.84375 -9.957031 C 4.535156 -9.957031 4.253906 -10.265625 4.253906 -10.265625 C 3.566406 -10.40625 3.355469 -10.574219 2.738281 -10.574219 C 2.148438 -10.574219 1.855469 -10.265625 1.542969 -10.265625 C 0.953125 -9.675781 0.363281 -8.789062 0.644531 -7.863281 C 0.644531 -7.273438 1.277344 -6.726562 1.742188 -6.25 C 2.203125 -5.773438 2.457031 -5.785156 2.738281 -5.492188 C 3.035156 -5.195312 3.34375 -4.886719 3.945312 -4.59375 C 4.535156 -4.28125 4.84375 -3.972656 5.152344 -3.382812 C 5.730469 -0.984375 5.152344 1.390625 3.355469 2.289062 C 3.046875 2.289062 3.046875 2.597656 2.738281 2.597656 C 1.855469 2.289062 1.542969 0.492188 2.148438 -0.0859375 C 2.457031 -0.394531 2.738281 -0.394531 3.046875 -0.394531 C 3.355469 -0.984375 3.046875 -1.601562 2.457031 -1.601562 C 1.585938 -1.234375 0.953125 -1.292969 0.0546875 -0.984375 C 0.0546875 -0.703125 0.0546875 -0.394531 0.363281 -0.0859375 C 0.644531 -0.0859375 0.644531 -0.394531 0.953125 -0.394531 C 0.644531 0.800781 0.953125 1.699219 1.265625 2.289062 C 1.542969 2.597656 2.457031 3.484375 3.046875 3.484375 L 4.253906 3.484375 C 5.449219 3.1875 6.179688 2.683594 6.628906 1.699219 C 7.007812 0.871094 7.191406 0.210938 7.191406 -0.96875 C 7.191406 -1.585938 7.050781 -2.332031 6.742188 -2.933594 C 6.460938 -3.523438 6.304688 -3.761719 6.164062 -4.003906 C 5.351562 -5.433594 3.636719 -5.785156 3.046875 -6.964844 C 2.738281 -7.582031 2.738281 -9.070312 3.046875 -9.675781 C 3.636719 -9.675781 4.253906 -9.367188 4.535156 -9.070312 C 4.535156 -8.480469 4.253906 -7.863281 4.535156 -7.582031 C 5.152344 -7.273438 5.449219 -8.171875 5.730469 -8.789062 C 5.730469 -9.070312 6.039062 -9.675781 5.730469 -9.957031 C 5.730469 -10.265625 5.449219 -10.265625 5.152344 -10.265625 C 4.84375 -10.265625 4.84375 -9.957031 4.84375 -9.957031 Z M 4.84375 -9.957031 "/></g></g></g><g fill="#00c2cb" fill-opacity="1"><g transform="translate(69.332538, 143.034965)"><g><path d="M 5.714844 2.359375 C 5.40625 2.359375 4.929688 3.132812 4.929688 3.441406 C 4.929688 3.707031 5.40625 3.582031 5.714844 3.554688 C 6.320312 3.554688 6.824219 3.46875 7.414062 3.46875 L 7.78125 3.554688 C 8.398438 3.257812 7.78125 2.933594 7.78125 2.667969 L 7.78125 0.871094 C 7.511719 -1.769531 7.371094 -4.394531 7.089844 -6.726562 C 7.035156 -7.203125 6.921875 -7.75 6.640625 -8.3125 C 6.640625 -8.917969 6.039062 -10.082031 5.40625 -10.390625 C 4.84375 -10.714844 4.226562 -10.082031 4.226562 -10.082031 C 3.636719 -9.210938 3.074219 -8.3125 2.765625 -7.121094 C 2.445312 -6.515625 2.148438 -5.644531 2.148438 -4.761719 C 1.855469 -2.667969 1.558594 -0.0273438 1.277344 1.769531 C 1.277344 2.078125 1.277344 2.375 0.96875 2.375 C 0.703125 2.375 0.363281 2.640625 0.0859375 2.949219 L 0.703125 3.539062 C 1.558594 3.214844 2.402344 3.847656 3.300781 3.230469 C 3.300781 3.230469 3.34375 2.949219 3.34375 2.640625 C 3.074219 2.375 2.765625 2.640625 2.445312 2.375 C 2.445312 0.84375 2.445312 -0.589844 2.765625 -1.769531 C 2.765625 -2.402344 2.765625 -2.992188 3.074219 -3.285156 C 3.945312 -3.285156 4.84375 -2.992188 5.40625 -2.992188 C 5.714844 -1.503906 5.714844 0.5625 5.714844 2.359375 Z M 4.226562 -8.621094 L 4.535156 -8.917969 C 4.84375 -8.917969 4.84375 -8.621094 4.84375 -8.621094 C 5.152344 -7.75 5.40625 -6.515625 5.40625 -5.644531 L 5.40625 -3.875 C 4.84375 -3.875 3.945312 -3.875 3.074219 -4.144531 C 3.074219 -4.480469 3.34375 -5.378906 3.34375 -5.644531 C 3.636719 -6.824219 3.945312 -7.75 4.226562 -8.621094 Z M 4.226562 -8.621094 "/></g></g></g><g fill="#00c2cb" fill-opacity="1"><g transform="translate(77.684165, 143.034965)"><g/></g></g><g fill="#00c2cb" fill-opacity="1"><g transform="translate(84.702338, 143.034965)"><g><path d="M 0.335938 2.625 C 0.335938 2.921875 0.632812 3.230469 0.941406 3.523438 C 1.515625 3.523438 2.429688 3.523438 3.035156 3.230469 L 3.609375 3.230469 C 4.816406 3.230469 5.40625 2.625 6.011719 2.34375 C 6.910156 1.136719 8.089844 -0.351562 8.089844 -2.148438 C 8.398438 -3.34375 8.214844 -4.421875 8.089844 -5.40625 C 7.933594 -6.570312 7.609375 -7.273438 7.203125 -8.117188 C 6.921875 -8.707031 6.613281 -9.324219 6.011719 -9.605469 C 5.703125 -9.898438 5.125 -10.210938 4.816406 -10.503906 C 4.691406 -10.558594 4.550781 -10.488281 4.550781 -10.488281 C 3.820312 -10.601562 3.609375 -10.503906 3.035156 -10.503906 C 2.429688 -10.503906 1.824219 -10.503906 1.234375 -10.210938 L 0.941406 -9.898438 C 0.632812 -9.605469 0.335938 -9.605469 0.335938 -9.324219 C 0.335938 -8.410156 0.941406 -9.015625 1.515625 -9.015625 L 1.515625 -7.808594 C 1.824219 -6.921875 1.824219 -5.714844 1.824219 -4.535156 C 1.824219 -3.636719 2.121094 -2.445312 2.121094 -0.953125 L 2.121094 2.34375 C 1.824219 2.34375 1.824219 2.625 1.515625 2.625 Z M 3.609375 -9.605469 C 4.210938 -9.605469 4.523438 -9.605469 4.816406 -9.324219 C 5.703125 -8.410156 5.703125 -6.921875 6.011719 -5.433594 L 6.011719 -4.535156 C 6.304688 -3.636719 6.011719 -2.753906 6.011719 -2.148438 C 6.011719 -0.953125 6.011719 0.253906 5.40625 1.136719 C 5.40625 1.136719 5.40625 1.433594 5.125 1.433594 C 5.125 1.433594 4.816406 1.433594 4.816406 1.742188 C 4.523438 1.742188 4.210938 2.035156 3.917969 2.035156 C 3.609375 1.742188 3.917969 1.433594 3.917969 0.828125 C 3.917969 0.253906 3.609375 -0.351562 3.609375 -0.953125 L 3.609375 -3.933594 C 3.609375 -4.832031 3.496094 -5.363281 3.496094 -6.023438 C 3.496094 -6.628906 3.425781 -7.230469 3.425781 -8.117188 C 3.425781 -8.523438 3.328125 -9.324219 3.609375 -9.605469 Z M 3.609375 -9.605469 "/></g></g></g><g fill="#00c2cb" fill-opacity="1"><g transform="translate(93.362769, 143.034965)"><g><path d="M 7.78125 -9.367188 C 8.355469 -9.367188 8.355469 -10.238281 7.78125 -10.519531 C 7.484375 -10.519531 7.316406 -10.460938 6.910156 -10.519531 C 6.277344 -10.617188 5.785156 -10.519531 5.210938 -10.238281 L 5.210938 -9.660156 C 5.492188 -9.367188 6.066406 -9.660156 6.332031 -9.367188 C 6.628906 -8.511719 6.628906 -7.0625 6.628906 -6.222656 C 5.492188 -5.941406 4.351562 -5.941406 3.203125 -6.222656 C 2.90625 -6.78125 3.203125 -7.640625 3.203125 -8.214844 C 3.203125 -8.789062 2.90625 -9.085938 3.203125 -9.367188 C 3.484375 -9.367188 4.058594 -9.367188 4.058594 -9.660156 C 4.058594 -9.941406 3.777344 -10.238281 3.484375 -10.238281 C 2.90625 -10.519531 2.0625 -10.238281 1.488281 -10.238281 L 0.335938 -10.238281 C 0.0546875 -9.941406 0.335938 -9.660156 0.335938 -9.660156 C 0.632812 -9.367188 0.914062 -9.367188 0.914062 -9.367188 C 1.207031 -8.789062 0.914062 -7.933594 1.207031 -7.359375 L 1.207031 -7.0625 C 1.207031 -6.78125 1.207031 -6.515625 1.207031 -6.222656 L 1.207031 -5.941406 C 1.207031 -5.660156 1.207031 -5.660156 1.207031 -5.363281 L 1.207031 1.222656 C 1.207031 1.785156 1.207031 2.0625 1.207031 2.359375 L 0.632812 2.359375 C 0.335938 2.640625 0.632812 3.214844 0.632812 3.214844 C 1.785156 3.511719 2.332031 3.214844 3.484375 3.214844 C 4.058594 2.933594 3.484375 2.359375 3.203125 2.359375 C 2.90625 1.785156 3.203125 1.515625 2.90625 0.941406 C 2.90625 0.644531 2.90625 0.363281 2.90625 0.0703125 L 2.90625 -3.0625 C 2.90625 -3.933594 2.90625 -4.507812 3.484375 -5.082031 C 4.351562 -5.082031 5.492188 -5.363281 6.332031 -5.082031 C 6.332031 -5.082031 6.628906 -5.082031 6.628906 -4.789062 C 6.628906 -2.484375 6.910156 0.0703125 6.628906 2.359375 C 6.628906 2.640625 6.066406 2.640625 6.066406 2.933594 C 5.785156 3.214844 5.671875 3.242188 5.953125 3.523438 C 6.222656 3.523438 6.332031 3.511719 6.628906 3.511719 C 7.203125 3.511719 7.34375 3.523438 7.640625 3.523438 C 7.640625 3.523438 7.792969 3.554688 8.074219 3.453125 C 8.269531 3.257812 8.355469 3.511719 8.355469 3.511719 L 8.355469 2.933594 C 8.355469 2.640625 8.058594 2.640625 7.78125 2.359375 C 7.78125 0.941406 7.484375 -0.785156 7.484375 -2.21875 C 7.484375 -3.0625 7.484375 -3.933594 7.484375 -4.507812 L 7.484375 -7.0625 C 7.484375 -7.933594 7.484375 -8.789062 7.78125 -9.367188 Z M 7.78125 -9.367188 "/></g></g></g><g fill="#00c2cb" fill-opacity="1"><g transform="translate(102.03723, 143.034965)"><g><path d="M 2.964844 -9.480469 C 3.523438 -9.480469 3.820312 -10.054688 3.523438 -10.347656 C 2.964844 -10.628906 1.8125 -10.347656 1.222656 -10.347656 C 0.660156 -10.347656 0.363281 -10.628906 0.363281 -10.347656 L 0.363281 -9.773438 C 0.363281 -9.480469 0.660156 -9.480469 0.925781 -9.480469 C 0.925781 -7.75 0.925781 -6.023438 0.925781 -4.578125 L 0.925781 -1.980469 C 0.925781 -1.683594 0.96875 -1.304688 0.96875 -1.304688 C 0.96875 -0.449219 0.925781 0.324219 0.925781 1.207031 C 0.925781 1.503906 1.222656 2.0625 0.925781 2.359375 C 0.660156 2.652344 0.363281 2.359375 0.363281 2.652344 C 0.0703125 2.921875 0.363281 3.214844 0.363281 3.214844 C 1.222656 3.511719 2.375 3.214844 2.964844 3.511719 C 3.257812 3.214844 3.523438 3.214844 3.523438 2.921875 C 3.257812 2.652344 2.964844 2.652344 2.667969 2.359375 C 2.667969 -0.828125 2.863281 -3.972656 2.964844 -6.882812 C 2.992188 -7.75 2.667969 -8.621094 2.964844 -9.480469 Z M 2.964844 -9.480469 "/></g></g></g><g fill="#00c2cb" fill-opacity="1"><g transform="translate(105.967408, 143.034965)"><g><path d="M 6.839844 2.164062 C 7.414062 1.125 7.820312 0.0273438 8.117188 -1.390625 C 8.398438 -2.542969 8.355469 -3.582031 8.355469 -4.4375 C 8.355469 -5.082031 8.355469 -5.378906 8.300781 -5.953125 C 8.160156 -7.429688 7.5 -8.734375 6.628906 -9.308594 C 6.050781 -10.179688 5.476562 -10.460938 4.351562 -10.460938 C 2.332031 -10.757812 1.753906 -9.03125 0.898438 -7.890625 C 0.605469 -7.609375 0.617188 -7.007812 0.476562 -6.402344 C 0.476562 -6.109375 0.394531 -5.703125 0.324219 -5.308594 C 0.195312 -4.535156 0.324219 -4.15625 0.324219 -3.582031 C 0.324219 -2.429688 0.324219 -1.277344 0.605469 -0.15625 C 0.898438 0.714844 1.207031 1.363281 1.472656 1.867188 C 2.164062 3.171875 4.183594 4.210938 6.050781 3.019531 C 6.304688 2.863281 6.640625 2.511719 6.839844 2.164062 Z M 5.589844 1.964844 C 5.378906 2.5 3.960938 2.753906 3.523438 2.316406 C 3.328125 2.121094 3.484375 1.867188 3.203125 1.867188 C 2.90625 1.574219 2.90625 0.996094 2.625 0.421875 C 2.332031 -1.277344 2.050781 -3.582031 2.332031 -5.882812 C 2.332031 -6.460938 2.332031 -7.035156 2.625 -7.609375 C 2.90625 -8.46875 3.203125 -9.03125 3.777344 -9.605469 C 4.351562 -9.605469 4.394531 -9.550781 4.941406 -9.550781 C 5.519531 -9.269531 5.773438 -8.46875 6.050781 -7.890625 C 6.347656 -7.316406 6.347656 -6.742188 6.628906 -6.164062 C 6.628906 -5.589844 6.726562 -5.042969 6.726562 -4.464844 C 6.726562 -3.902344 6.628906 -3.582031 6.628906 -3.003906 C 6.628906 -2.148438 6.628906 -1.277344 6.347656 -0.421875 C 6.191406 0.265625 5.8125 1.402344 5.589844 1.964844 Z M 5.589844 1.964844 "/></g></g></g><g fill="#00c2cb" fill-opacity="1"><g transform="translate(114.585725, 143.034965)"><g><path d="M 6.542969 -7.539062 C 6.824219 -7.835938 7.121094 -8.972656 6.824219 -9.828125 C 6.824219 -10.109375 6.25 -10.40625 5.980469 -10.40625 C 5.40625 -10.6875 4.832031 -10.40625 4.550781 -10.40625 C 3.972656 -10.40625 3.414062 -10.40625 2.835938 -10.109375 C 2.835938 -10.109375 2.554688 -9.828125 2.261719 -9.828125 C 1.980469 -9.535156 1.980469 -9.269531 1.683594 -8.972656 C 1.125 -8.398438 1.125 -7.710938 0.800781 -6.9375 C 0.644531 -6.558594 0.5625 -6.066406 0.503906 -5.785156 C 0.351562 -4.929688 0.265625 -4.410156 0.265625 -3.832031 L 0.265625 -2.132812 C 0.265625 -0.984375 0.546875 0.15625 0.84375 1.011719 C 1.753906 2.359375 2.035156 2.738281 3.414062 3.300781 C 4.183594 3.621094 5.40625 3.582031 5.980469 3.300781 C 6.25 3.003906 6.824219 2.722656 6.824219 2.429688 C 7.402344 1.585938 7.121094 0.15625 7.121094 -1.265625 C 7.121094 -1.558594 7.402344 -1.839844 7.121094 -2.132812 C 6.542969 -2.695312 5.6875 -2.402344 4.832031 -2.402344 C 4.550781 -1.839844 4.550781 -0.984375 4.550781 -0.40625 C 4.832031 -0.125 4.832031 0.15625 5.113281 0.15625 C 5.6875 -0.125 5.40625 -0.984375 5.6875 -1.558594 C 5.6875 -1.558594 5.980469 -1.839844 6.25 -1.558594 C 6.09375 0.183594 6.601562 2.472656 4.832031 2.722656 C 3.691406 2.429688 2.554688 2.429688 2.261719 1.292969 C 1.980469 0.15625 2.261719 -0.984375 2.261719 -2.132812 C 2.261719 -3.554688 2.359375 -4.929688 2.359375 -6.363281 C 2.359375 -7.273438 2.835938 -8.117188 3.117188 -8.691406 C 3.691406 -9.535156 5.113281 -9.535156 5.980469 -9.535156 C 6.25 -8.972656 5.980469 -7.835938 6.542969 -7.539062 Z M 6.542969 -7.539062 "/></g></g></g><g fill="#00c2cb" fill-opacity="1"><g transform="translate(122.235534, 143.034965)"><g><path d="M 6.839844 2.164062 C 7.414062 1.125 7.820312 0.0273438 8.117188 -1.390625 C 8.398438 -2.542969 8.355469 -3.582031 8.355469 -4.4375 C 8.355469 -5.082031 8.355469 -5.378906 8.300781 -5.953125 C 8.160156 -7.429688 7.5 -8.734375 6.628906 -9.308594 C 6.050781 -10.179688 5.476562 -10.460938 4.351562 -10.460938 C 2.332031 -10.757812 1.753906 -9.03125 0.898438 -7.890625 C 0.605469 -7.609375 0.617188 -7.007812 0.476562 -6.402344 C 0.476562 -6.109375 0.394531 -5.703125 0.324219 -5.308594 C 0.195312 -4.535156 0.324219 -4.15625 0.324219 -3.582031 C 0.324219 -2.429688 0.324219 -1.277344 0.605469 -0.15625 C 0.898438 0.714844 1.207031 1.363281 1.472656 1.867188 C 2.164062 3.171875 4.183594 4.210938 6.050781 3.019531 C 6.304688 2.863281 6.640625 2.511719 6.839844 2.164062 Z M 5.589844 1.964844 C 5.378906 2.5 3.960938 2.753906 3.523438 2.316406 C 3.328125 2.121094 3.484375 1.867188 3.203125 1.867188 C 2.90625 1.574219 2.90625 0.996094 2.625 0.421875 C 2.332031 -1.277344 2.050781 -3.582031 2.332031 -5.882812 C 2.332031 -6.460938 2.332031 -7.035156 2.625 -7.609375 C 2.90625 -8.46875 3.203125 -9.03125 3.777344 -9.605469 C 4.351562 -9.605469 4.394531 -9.550781 4.941406 -9.550781 C 5.519531 -9.269531 5.773438 -8.46875 6.050781 -7.890625 C 6.347656 -7.316406 6.347656 -6.742188 6.628906 -6.164062 C 6.628906 -5.589844 6.726562 -5.042969 6.726562 -4.464844 C 6.726562 -3.902344 6.628906 -3.582031 6.628906 -3.003906 C 6.628906 -2.148438 6.628906 -1.277344 6.347656 -0.421875 C 6.191406 0.265625 5.8125 1.402344 5.589844 1.964844 Z M 5.589844 1.964844 "/></g></g></g></svg>